# xmcd CD database file
#
# Track frame offsets:
#	150
#	26630
#	45324
#	65945
#	87053
#	107255
#	128260
#	148936
#	165641
#	188693
#	222360
#	241034
#
# Disc length: 3601 seconds
#
# Revision: 0
# Processed by: cddbd v1.5.1PL0 Copyright (c) Steve Scherf et al.
# Submitted via: CDex 1.51
#
DISCID=980e0f0c
DTITLE=M Path - Journey to the Heart
DYEAR=2005
DGENRE=New Age
TTITLE0=Om Kar
TTITLE1=Graceful
TTITLE2=Hey Gopal
TTITLE3=Amateyus
TTITLE4=Jataka
TTITLE5=Mantrika
TTITLE6=Neytal
TTITLE7=Ghandarva
TTITLE8=Jai Ambe
TTITLE9=Soma
TTITLE10=Emperor
TTITLE11=OmKar ( Meditation Mix )
EXTD=YEAR: 2005
EXTT0=
EXTT1=
EXTT2=
EXTT3=
EXTT4=
EXTT5=
EXTT6=
EXTT7=
EXTT8=
EXTT9=
EXTT10=
EXTT11=
PLAYORDER=
